<?xml version="1.0" encoding="utf-8"?>

<!DOCTYPE svg PUBLIC "-//W3C//DTD SVG 1.1//EN" "http://www.w3.org/Graphics/SVG/1.1/DTD/svg11.dtd">
<svg version="1.1" id="Layer_1" xmlns="http://www.w3.org/2000/svg" xmlns:xlink="http://www.w3.org/1999/xlink" x="0px" y="0px"
	 viewBox="0 0 2155.106 1737.2994" enable-background="new 0 0 2155.106 1737.2994" xml:space="preserve">
<g>
	<path d="M787.9048,1369.4493c6.7734,2.4596,12.6519,6.8516,18.2252,11.311c12.6058,10.0867,24.5348,18.8883,38.0448,27.6725
		c8.1262,5.2836,16.1001,9.6464,23.8818,15.3691c5.783,4.2528,12.5914,8.9441,19.1891,11.8099
		c23.9843,10.4177,50.3209,15.6317,74.8477,25.1171c26.3423,10.1874,51.9258,22.3374,76.4587,36.3322
		c28.9381,16.5078,56.8291,35.8038,88.4342,47.0171c12.9537,4.5958,24.5461,5.9766,35.3746,14.4019
		c11.4648,8.9202,23.783,12.9017,35.619,20.7704c6.6899,4.4485,12.6414,10.2599,18.9675,15.2217
		c13.8149,10.8354,26.1863,21.3358,38.2631,34.0603c6.2302,6.5643,13.082,14.2208,21.66,17.6627
		c7.3621,2.9541,13.6858,5.6171,20.6694,9.444c7.1912,3.9404,15.0519,6.9705,22.6251,10.0812
		c3.775,1.5507,7.3369,2.3906,10.9042,2.9294h0.0007c408.0703,0,738.8766-330.8064,738.8766-738.8767v-14.4212
		c-2.1797-3.7477-3.5479-8.9324-4.396-15.0392c-3.2439-23.3638-3.2422-47.1483-7.6523-70.3203
		c-6.4285-33.7752-24.27-56.6693-51.0448-77.0783c-8.874-6.7643-11.5234-18.8406-22.374-24.4925
		c-5.6394-2.9374-12.6034-3.3096-17.0709-8.3027c-4.1083-4.5919-9.2863-8.0012-14.7053-10.8467
		c-16.0735-8.4401-29.8699-21.8929-46.3281-28.29c-21.5909-8.3919-44.5969-14.2109-66.6735-21.2492
		c-21.2913-6.788-42.7938-13.6694-62.0067-25.0828c-19.6156-11.6525-36.5189-27.8459-57.3066-37.2493
		c-40.13-18.1528-87.6613-8.1999-129.855-20.835c-27.908-8.3571-51.9581-26.1318-78.6581-37.7859
		c-31.171-13.6057-65.2711-18.6048-98.4293-26.1734c-20.6488-4.7131-41.2954-10.5692-60.3271-20.0266
		c-15.8396-7.8712-29.2012-24.9219-45.47-30.4714c-14.2642-4.8658-23.0425-20.8969-35.431-29.3248
		c-9.6921-6.5935-21.5197-13.1875-28.8167-22.5952c-5.2742-6.8-7.5747-15.3474-12.4988-22.6882
		c-10.6194-15.8314-26.368-27.5052-39.6705-40.9047c-12.6697-12.7623-23.401-27.2875-34.0825-41.7547
		c-20.7737-28.1353-41.5472-56.2706-62.3208-84.4061c-15.9875-21.6533-36.1365-40.7122-49.7432-63.6016
		c-3.7261-6.2695-6.3738-13.022-11.058-18.7062c-5.0746-6.1579-9.5995-12.4508-15.1886-18.2297
		c-4.3522-4.5002-9.3211-7.8132-13.5502-12.3098c-9.4901-10.0903-18.0267-21.6103-29.4014-29.6199
		c-12.9092-9.0901-27.7974-14.8484-40.5602-1.1889c-11.5777,12.3914-15.5792,27.0847-20.6435,42.9993
		c-5.4077,16.9936-1.7896,37.2329-2.4424,54.7935c-1.7521,47.2012-3.811,94.3578-5.1276,141.5818
		c-0.6211,22.2828,9.1547,49.9846,1.4473,70.9864c-4.3091,11.7418-25.2839,1.9024-30.4482-3.8563
		c-11.8187-13.1785-23.5596-26.1852-35.608-39.1599c-10.5898-11.4039-26.2983-19.0799-38.786-28.4316
		c-26.7755-20.0515-51.515-42.3356-78.7752-61.4692c-32.0436-22.4908-61.5776-48.4923-91.7798-73.3582
		c-28.485-23.4519-52.7725-49.9082-74.2505-80.0696c-6.0269-8.4634-8.6141-12.8349-19.2952-14.0377
		c-5.8585-0.6596-10.7197-2.4711-14.7456,2.8044c-7.9584,10.4272-8.2129,17.3851-6.3927,30.315
		c2.6753,19.0049,10.3089,37.0621,16.5491,55.0917c6.0786,17.5626,12.1047,35.1434,18.1194,52.7279
		c12.3542,36.119,27.6177,71.1224,42.0376,106.4533c12.6327,30.9518,23.9192,62.0954,37.1998,92.4965
		c3.2076,7.3428,10.7725,15.3983,11.7672,23.3246c0.9225,7.3516-5.2293,13.7573-9.8113,18.6932
		c-10.4639,11.272-24.0085,19.2466-34.0664,30.8046c-10.5703,12.1467-25.4884,19.3472-37.4435,30.0023
		c-11.4788,10.2306-17.6336,23.1571-27.9482,34.2462c-5.6867,6.1136-11.235,11.3322-16.181,18.2013
		c-4.6544,6.4642-5.9233,14.0673-10.2341,20.6904c-8.8101,13.5359-22.209,22.6973-32.2595,34.9902
		c-5.6903,6.96-3.6198,16.5051-5.3743,24.762c-1.4484,6.8162-3.5231,13.982-7.8163,19.6035
		c-3.8097,4.9882-8.6985,9.3597-12.714,14.2797c-4.5607,5.588-11.7486,7.5027-16.1621,12.7708
		c-10.0147,11.9539-3.8571,35.6306-2.6222,49.5124c0.5998,6.7408,6.057,11.8823,7.6981,18.5807
		c2.0419,8.3342,3.0911,16.6822,4.6591,25.0877c3.0321,16.2545-2.2826,29.5261-8.9829,43.7703
		c-6.8163,14.4907-17.785,23.3899-29.3848,33.4238c-11.2791,9.7563-23.4111,17.8212-35.9759,25.7288
		c-6.5716,4.1357-12.4787,9.3061-18.9099,13.6565c-6.1314,4.1476-12.9284,5.5715-19.1993,9.0195
		c-7.3938,4.0654-13.4781,11.4062-20.9523,15.8392c-6.9258,4.1077-14.1694,7.6385-21.367,11.2355
		c-14.1773,7.0853-24.9318,17.7255-37.1742,27.5115c-28.2962,22.6188-61.6531,35.3661-91.9365,54.4141
		c-14.6575,9.2195-27.8543,20.8256-43.0005,28.9075c-6.4818,3.4586-9.0663,9.9513-13.4406,15.4142
		c-4.5121,5.6349-11.2712,8.5839-15.8066,13.8373c-9.477,10.9774,9.8812,36.6456,13.3357,47.389
		c5.0571,15.7275,9.5257,31.4532,14.4463,47.2078c2.8069,8.9872,6.9317,17.5841,12.9607,24.8696
		c4.162,5.0295,10.0228,5.7932,14.3979,10.374c4.5381,4.7516,5.5037,11.174,8.8458,16.6016
		c3.2738,5.3168,10.7954,8.4973,11.8145,15.0101c0.8351,5.337-3.2437,9.5159-1.2433,15.2916
		c1.0747,3.103,1.6286,6.3583,2.0063,9.6202c1.1987,10.3497,5.2313,14.4473,9.7943,22.3037
		c4.0466,6.967,9.0844,11.4797,14.7421,17.0267c5.4598,5.353,9.8548,12.1273,17.2204,15.0811
		c14.7451,5.9132,27.9041,14.1876,42.7821,20.1107c7.6421,3.0425,12.1365,4.6304,20.4845,5.6797
		c8.0623,1.0135,15.3966,2.972,23.5653,3.6396c53.8089,4.3969,106.1736,17.5873,160.4164,20.017
		c54.5293,2.4425,109.9128-0.9659,162.8972-14.6978c7.3609-1.9078,11.9952-6.7815,17.5262-11.5637
		c9.587-8.2891,27.9766-13.3206,40.4202-14.2366c13.4218-0.988,34.7302-8.1494,45.7678,3.2626
		c11.4581,11.8469,25.0496,17.8293,41.7604,19.2396C770.4045,1367.9158,779.5427,1366.4128,787.9048,1369.4493z"/>
</g>
</svg>
